<?xml version="1.0" encoding="UTF-8"?>
<svg width="82.383" height="105.39" version="1.1" viewBox="0 0 82.383 105.39" xml:space="preserve" xmlns="http://www.w3.org/2000/svg">

<g id="a" transform="translate(-.96251 -.002847)">
	
	
	
	<g>
		
		<g transform="translate(-78.919 -48.199)">
			<path d="m161.76 109.71-5.904-36.459c-0.504-3.111-3.19-5.398-6.342-5.398h-1.455l0.829 10.434c0.104 1.31-0.308 2.582-1.161 3.581-0.853 1-2.044 1.607-3.34 1.71-0.14 0.012-0.279 0.018-0.417 0.018-2.539 0-4.687-1.99-4.888-4.531l-0.891-11.213h-28.09l-0.948 11.237c-0.214 2.526-2.366 4.505-4.899 4.505-0.132 0-0.265-5e-3 -0.417-0.017-2.702-0.229-4.715-2.613-4.488-5.315l0.878-10.41h-2.967c-3.179 0-5.88 2.325-6.353 5.469l-11.007 73.197c-9e-3 0.06-9e-3 0.118-0.017 0.177 56.369 10.856 72.148-35.786 72.148-35.786-0.539 20.008-9.15 33.549-19.837 42.684 19.398-4.387 32.9-23.298 29.566-43.883z" fill="#9fc749"/>
			
				<path d="m138.87 110.05h-23.367c0.96 4.478 4.606 7.22 9.85 7.22 2.357 0 4.286-0.475 5.995-1.443 1.72-0.974 3.882-0.627 5.19 0.855 1.672 1.895 1.331 4.895-0.811 6.235-2.854 1.785-6.417 2.71-10.628 2.71-11.897 0-19.637-7.821-19.637-18.518 0-10.763 7.867-18.517 18.357-18.517 10.105 0 17.909 7.086 17.909 18.65v0.024c-5e-3 1.55-1.309 2.784-2.858 2.784zm-23.494-6.083h16.95c-0.703-4.546-3.966-7.487-8.443-7.487-4.541 0-7.803 2.875-8.507 7.487z" fill="#f4f4f4"/>
			
			<path d="m146.44 78.48-1.178-14.829c-0.691-8.632-7.742-15.225-16.4-15.334l-8.976-0.114c-0.071-1e-3 -0.14-1e-3 -0.211-1e-3 -8.606 0-15.88 6.666-16.605 15.264l-1.265 15.002c-0.114 1.353 0.891 2.543 2.244 2.658 0.07 5e-3 0.14 8e-3 0.21 8e-3 1.264 0 2.339-0.97 2.448-2.253l1.265-15.002c0.51-6.053 5.587-10.758 11.68-10.758 0.057 0 0.115 0 0.172 1e-3l8.976 0.113c6.103 0.077 11.073 4.724 11.559 10.806l1.178 14.827c0.102 1.284 1.168 2.266 2.437 2.266 0.069 0 0.139-3e-3 0.21-9e-3 1.353-0.106 2.364-1.291 2.256-2.645z" fill="#9fc749"/>
		</g>
	</g>
</g>
</svg>
